<svg width="230" height="277" viewBox="0 0 230 277" fill="none" xmlns="http://www.w3.org/2000/svg">
<path d="M126.783 1.37354C132.078 4.28254 134.445 7.89485 136.505 13.5259C137.042 16.9829 137.03 20.3719 136.986 23.865C136.99 24.8805 136.993 25.8959 136.997 26.9422C137.003 30.3311 136.981 33.7191 136.959 37.1079C136.958 39.5426 136.959 41.9772 136.961 44.4119C136.962 49.6464 136.951 54.8807 136.928 60.1151C136.896 67.6831 136.885 75.251 136.88 82.8191C136.871 95.0992 136.845 107.379 136.807 119.659C136.77 131.585 136.742 143.51 136.725 155.436C136.724 156.171 136.723 156.907 136.722 157.665C136.717 161.356 136.711 165.047 136.706 168.738C136.665 199.334 136.594 229.93 136.505 260.526C138.092 260.065 139.678 259.6 141.263 259.134C142.146 258.875 143.03 258.617 143.94 258.351C147.483 257.212 150.684 255.682 153.943 253.901C154.582 253.554 155.221 253.207 155.879 252.849C162.014 249.411 167.324 245.282 172.505 240.526C173.419 239.693 174.333 238.86 175.275 238.002C200.531 213.912 209.054 182.422 209.943 148.401C209.958 147.214 209.973 146.026 209.989 144.803C210.013 143.678 210.038 142.553 210.064 141.393C210.077 140.384 210.091 139.374 210.105 138.334C210.61 134.79 211.955 132.076 214.505 129.526C221.604 128.816 221.604 128.816 225.443 131.838C228.774 136.179 228.73 140.15 228.892 145.413C228.917 146.188 228.943 146.964 228.969 147.764C229.021 149.407 229.071 151.05 229.118 152.694C229.192 155.187 229.283 157.68 229.374 160.172C229.423 161.773 229.47 163.374 229.517 164.975C229.546 165.712 229.575 166.449 229.605 167.208C229.727 172.339 228.911 176.586 227.505 181.526C227.222 182.765 226.938 184.003 226.646 185.28C221.532 207.146 211.864 225.34 197.505 242.526C196.639 243.605 196.639 243.605 195.755 244.706C183.114 260.163 163.992 272.224 144.505 276.526C132.271 277.259 122.22 277.241 112.193 269.401C106.889 264.255 103.381 257.957 102.879 250.504C102.853 248.705 102.854 246.906 102.877 245.107C102.87 244.107 102.863 243.107 102.856 242.077C102.838 238.752 102.856 235.428 102.874 232.103C102.869 229.709 102.862 227.315 102.852 224.921C102.836 219.11 102.843 213.299 102.861 207.488C102.875 202.765 102.878 198.041 102.875 193.317C102.875 192.643 102.874 191.97 102.874 191.275C102.873 189.906 102.872 188.537 102.87 187.168C102.862 175.081 102.879 162.995 102.908 150.908C102.937 139.189 102.944 127.471 102.929 115.753C102.912 102.976 102.908 90.1988 102.925 77.4218C102.927 76.0589 102.929 74.696 102.931 73.3331C102.932 72.6625 102.933 71.992 102.934 71.3012C102.939 66.5835 102.936 61.8658 102.929 57.1481C102.922 50.7975 102.934 44.4472 102.961 38.0967C102.968 35.7662 102.968 33.4358 102.961 31.1053C102.952 27.9244 102.968 24.7444 102.991 21.5636C102.982 20.6414 102.974 19.7192 102.966 18.7691C103.042 12.8512 104.042 9.36878 107.505 4.52588C113.353 -0.0356832 119.684 -1.26848 126.783 1.37354Z" fill="url(#paint0_linear_1_95)"/>
<path d="M77.2426 55.2759C81.3786 59.53 82.8046 63.6969 82.8111 69.5599C82.8238 71.3389 82.8238 71.3389 82.8367 73.1538C82.8306 74.4412 82.8246 75.7287 82.8183 77.0552C82.8224 78.4355 82.8277 79.8158 82.8342 81.1961C82.8479 84.9337 82.8426 88.671 82.8331 92.4086C82.8255 96.3256 82.8325 100.243 82.8372 104.16C82.8427 110.737 82.8355 117.314 82.8212 123.891C82.8049 131.488 82.8102 139.084 82.8267 146.681C82.8403 153.212 82.8422 159.742 82.8344 166.272C82.8297 170.169 82.8291 174.065 82.839 177.962C82.8477 181.626 82.8416 185.29 82.8243 188.954C82.8185 190.936 82.8274 192.917 82.8367 194.898C82.8282 196.084 82.8198 197.27 82.8111 198.492C82.8099 199.518 82.8088 200.545 82.8076 201.602C82.1929 206.363 80.2439 210.369 76.4301 213.338C71.9072 216.636 67.9059 217.088 62.4301 216.526C56.755 214.523 53.1234 210.912 50.4301 205.526C50.3281 203.682 50.2906 201.833 50.2829 199.986C50.2758 198.809 50.2686 197.631 50.2613 196.418C50.2586 195.119 50.2559 193.82 50.2531 192.482C50.2468 191.106 50.2402 189.729 50.2332 188.353C50.2121 183.825 50.2018 179.296 50.1918 174.768C50.1878 173.209 50.1837 171.649 50.1795 170.09C50.1604 162.761 50.1462 155.432 50.1379 148.104C50.1281 139.649 50.1018 131.195 50.0614 122.741C50.0312 116.205 50.0164 109.668 50.0131 103.131C50.0107 99.2282 50.0018 95.3258 49.9766 91.4232C49.9533 87.7476 49.9491 84.0724 49.9594 80.3967C49.9601 78.4135 49.9411 76.4302 49.9213 74.4471C49.9627 67.3331 50.5024 62.5327 54.4301 56.5259C61.6586 50.3973 69.3947 50.3927 77.2426 55.2759Z" fill="url(#paint1_linear_1_95)"/>
<path d="M181.196 61.4219C186.183 63.9152 189.693 67.4154 192.196 72.4219C192.305 75.5329 192.353 78.6218 192.357 81.7334C192.364 83.1824 192.364 83.1824 192.372 84.6607C192.387 87.8676 192.394 91.0744 192.399 94.2813C192.405 96.5061 192.411 98.7309 192.416 100.956C192.427 105.626 192.433 110.297 192.436 114.968C192.442 120.951 192.466 126.934 192.494 132.918C192.513 137.516 192.518 142.114 192.519 146.712C192.522 148.918 192.531 151.123 192.544 153.329C192.561 156.417 192.559 159.505 192.552 162.593C192.566 163.958 192.566 163.958 192.58 165.351C192.537 172.006 191.216 176.15 186.696 181.234C182.257 185.118 177.8 184.761 172.145 184.699C166.946 184.21 164.5 181.827 161.078 178.139C157.755 172.983 158.592 166.466 158.587 160.566C158.571 159.182 158.555 157.798 158.536 156.414C158.493 152.76 158.473 149.106 158.458 145.452C158.438 141.837 158.396 138.222 158.356 134.607C158.289 128.247 158.249 121.887 158.225 115.526C158.207 110.908 158.164 106.291 158.112 101.673C158.093 99.281 158.074 96.8885 158.055 94.4961C158.039 93.4309 158.024 92.3658 158.007 91.2683C157.962 82.3538 157.936 72.3581 164.196 65.4219C169.624 61.2966 174.434 60.3155 181.196 61.4219Z" fill="url(#paint2_linear_1_95)"/>
<path d="M21.7433 105.713C25.7817 108.316 28.0362 110.967 29.5558 115.526C29.6556 116.86 29.7039 118.198 29.7169 119.535C29.7265 120.336 29.7361 121.137 29.746 121.963C29.7503 122.825 29.7545 123.688 29.7589 124.577C29.7646 125.468 29.7703 126.36 29.7762 127.278C29.7856 129.165 29.7922 131.053 29.796 132.94C29.8057 135.817 29.8367 138.694 29.8683 141.571C29.8748 143.406 29.8801 145.241 29.8839 147.077C29.8963 147.933 29.9086 148.79 29.9213 149.672C29.9027 154.712 29.3522 158.16 26.5558 162.526C22.1338 166.616 18.692 167.904 12.6144 167.803C8.00838 167.183 5.29873 164.407 2.41711 160.989C-0.0356061 156.426 -0.0218118 152.844 0.0245361 147.745C0.0207092 146.813 0.0168823 145.881 0.0129395 144.921C0.0102262 142.958 0.0175464 140.995 0.0343018 139.031C0.0557199 136.035 0.0344804 133.041 0.00891113 130.045C0.0115545 128.133 0.0166797 126.22 0.0245361 124.307C0.0164392 123.416 0.00834228 122.526 0 121.608C0.0827419 116.088 0.884735 112.909 4.55579 108.526C9.71203 103.995 15.308 103.316 21.7433 105.713Z" fill="url(#paint3_linear_1_95)"/>
<defs>
<linearGradient id="paint0_linear_1_95" x1="166.23" y1="0" x2="166.23" y2="276.827" gradientUnits="userSpaceOnUse">
<stop stop-color="#FECD79"/>
<stop offset="1" stop-color="#F59F0A"/>
</linearGradient>
<linearGradient id="paint1_linear_1_95" x1="66.3821" y1="51.7581" x2="66.3821" y2="216.731" gradientUnits="userSpaceOnUse">
<stop stop-color="#FECD79"/>
<stop offset="1" stop-color="#F59F0A"/>
</linearGradient>
<linearGradient id="paint2_linear_1_95" x1="175.29" y1="61" x2="175.29" y2="184.735" gradientUnits="userSpaceOnUse">
<stop stop-color="#FECD79"/>
<stop offset="1" stop-color="#F59F0A"/>
</linearGradient>
<linearGradient id="paint3_linear_1_95" x1="14.9607" y1="104.355" x2="14.9607" y2="167.809" gradientUnits="userSpaceOnUse">
<stop stop-color="#FECD79"/>
<stop offset="1" stop-color="#F59F0A"/>
</linearGradient>
</defs>
</svg>
