<svg width="809" height="809" viewBox="0 0 809 809" fill="none" xmlns="http://www.w3.org/2000/svg">
<path d="M305.366 8.0141C312.462 14.2653 318.668 22.098 319.644 31.7696C319.752 35.0767 319.765 38.3719 319.746 41.6808C319.751 42.953 319.755 44.2252 319.76 45.536C319.773 49.0669 319.766 52.5975 319.757 56.1284C319.75 59.97 319.761 63.8115 319.77 67.653C319.782 74.3858 319.783 81.1185 319.777 87.8513C319.768 97.8632 319.776 107.875 319.787 117.887C319.807 135.768 319.809 153.65 319.804 171.531C319.8 187.181 319.8 202.831 319.806 218.481C319.807 220.58 319.807 222.678 319.808 224.776C319.809 227.938 319.811 231.1 319.812 234.261C319.822 263.662 319.827 293.064 319.819 322.465C319.819 323.573 319.819 324.682 319.818 325.824C319.816 334.828 319.813 343.831 319.811 352.834C319.801 387.952 319.809 423.071 319.832 458.189C319.858 497.636 319.871 537.083 319.864 576.53C319.863 580.735 319.863 584.94 319.862 589.145C319.862 590.181 319.862 591.216 319.861 592.283C319.859 607.922 319.867 623.56 319.88 639.199C319.895 656.982 319.896 674.766 319.878 692.549C319.869 702.503 319.87 712.456 319.887 722.41C319.898 729.058 319.894 735.707 319.878 742.355C319.869 746.143 319.867 749.931 319.882 753.72C319.898 757.803 319.884 761.886 319.866 765.97C319.876 767.142 319.885 768.314 319.895 769.522C319.787 781.77 316.053 791.294 307.366 800.014C305.071 801.713 302.977 802.782 300.366 804.014C299.066 804.849 299.066 804.849 297.741 805.702C290.441 809.736 279.164 809.036 271.155 807.331C262.391 804.373 254.397 798.898 249.366 791.014C246.442 784.438 244.243 777.973 244.237 770.753C244.233 769.679 244.23 768.605 244.227 767.498C244.228 766.317 244.23 765.135 244.231 763.918C244.229 762.659 244.227 761.399 244.224 760.102C244.218 756.589 244.218 753.076 244.218 749.564C244.218 745.748 244.212 741.933 244.207 738.118C244.198 730.543 244.194 722.969 244.192 715.394C244.189 706.324 244.18 697.254 244.171 688.184C244.15 666.26 244.14 644.336 244.131 622.411C244.127 612.042 244.122 601.673 244.117 591.304C244.099 555.819 244.084 520.333 244.076 484.848C244.076 482.619 244.075 480.391 244.075 478.163C244.075 477.058 244.074 475.953 244.074 474.814C244.073 469.216 244.072 463.617 244.07 458.018C244.07 456.907 244.07 455.796 244.07 454.651C244.062 418.621 244.038 382.591 244.006 346.561C243.972 308.479 243.952 270.398 243.949 232.316C243.948 228.136 243.948 223.957 243.947 219.778C243.947 218.748 243.947 217.719 243.947 216.659C243.944 200.088 243.929 183.517 243.908 166.946C243.888 150.293 243.883 133.641 243.892 116.988C243.897 107.092 243.891 97.1966 243.87 87.3008C243.856 80.6906 243.857 74.0806 243.87 67.4704C243.877 63.704 243.877 59.9378 243.86 56.1714C243.842 52.1112 243.855 48.0516 243.871 43.9914C243.86 42.8262 243.85 41.661 243.84 40.4605C243.938 28.8144 247.255 19.4885 255.366 11.0141C269.835 -2.21489 289.527 -3.90936 305.366 8.0141Z" fill="url(#paint0_linear_2_57)"/>
<path d="M666.365 141.014C676.084 146.639 682.442 155.087 685.903 165.654C686.568 169.045 686.505 172.409 686.497 175.85C686.499 176.648 686.501 177.447 686.503 178.27C686.509 180.962 686.507 183.654 686.506 186.347C686.509 188.29 686.512 190.233 686.515 192.176C686.523 197.53 686.525 202.883 686.526 208.236C686.527 214.004 686.535 219.773 686.542 225.541C686.555 238.161 686.561 250.781 686.566 263.401C686.568 271.279 686.573 279.156 686.577 287.034C686.589 308.839 686.6 330.643 686.603 352.448C686.603 353.858 686.603 355.268 686.604 356.678C686.604 358.092 686.604 359.506 686.604 360.919C686.605 363.755 686.605 366.591 686.606 369.427C686.606 370.481 686.606 370.481 686.606 371.557C686.61 394.354 686.626 417.15 686.649 439.946C686.674 464.048 686.687 488.15 686.688 512.252C686.689 525.39 686.695 538.529 686.713 551.667C686.729 562.854 686.734 574.042 686.726 585.229C686.722 590.938 686.723 596.646 686.737 602.355C686.749 607.582 686.748 612.809 686.736 618.036C686.734 619.926 686.737 621.816 686.746 623.705C686.81 638.54 685.607 650.316 675.178 661.702C666.433 670.101 656.396 671.398 644.826 671.221C635.442 670.905 628.395 667.207 621.365 661.014C614.229 652.914 610.887 644.255 610.985 633.516C610.981 632.707 610.976 631.898 610.971 631.064C610.959 628.364 610.968 625.666 610.978 622.966C610.974 621.006 610.968 619.046 610.961 617.086C610.947 611.71 610.951 606.334 610.959 600.958C610.963 595.156 610.951 589.355 610.941 583.553C610.923 572.191 610.923 560.829 610.928 549.467C610.932 540.232 610.93 530.998 610.925 521.763C610.924 520.449 610.924 519.135 610.923 517.781C610.922 515.78 610.921 513.78 610.919 511.779C610.909 493.185 610.904 474.591 610.912 455.996C610.912 455.295 610.912 454.595 610.913 453.873C610.915 448.183 610.918 442.493 610.92 436.803C610.931 414.607 610.922 392.412 610.899 370.216C610.873 345.271 610.86 320.325 610.867 295.38C610.871 282.175 610.868 268.969 610.851 255.764C610.836 244.524 610.835 233.283 610.853 222.043C610.861 216.308 610.864 210.573 610.848 204.838C610.834 199.587 610.839 194.336 610.859 189.085C610.862 187.187 610.859 185.289 610.849 183.39C610.779 169.592 611.957 158.992 621.803 148.389C634.891 136.259 649.988 133.437 666.365 141.014Z" fill="url(#paint1_linear_2_57)"/>
<path d="M426.178 143.827C433.81 149.264 438.418 156.173 441.366 165.014C441.463 167.621 441.503 170.201 441.497 172.808C441.499 173.614 441.501 174.42 441.503 175.25C441.509 177.975 441.507 180.699 441.506 183.423C441.509 185.387 441.512 187.35 441.515 189.314C441.523 194.729 441.525 200.143 441.526 205.557C441.528 211.39 441.535 217.222 441.542 223.055C441.555 235.817 441.561 248.58 441.566 261.342C441.569 269.308 441.573 277.273 441.577 285.239C441.59 307.284 441.6 329.329 441.603 351.373C441.603 352.799 441.604 354.225 441.604 355.651C441.604 357.081 441.604 358.51 441.605 359.939C441.605 362.807 441.605 365.675 441.606 368.542C441.606 369.609 441.606 369.609 441.606 370.697C441.61 393.749 441.626 416.802 441.649 439.854C441.674 464.223 441.687 488.592 441.689 512.961C441.689 526.246 441.695 539.531 441.713 552.816C441.729 564.129 441.734 575.441 441.726 586.754C441.722 592.527 441.723 598.3 441.737 604.074C441.749 609.359 441.748 614.644 441.736 619.929C441.734 621.841 441.737 623.753 441.746 625.665C441.757 628.265 441.75 630.865 441.738 633.466C441.745 634.206 441.753 634.947 441.761 635.71C441.66 645.786 437.537 654.433 430.737 661.772C421.486 670.314 410.64 671.502 398.541 671.291C393.454 671.064 389.626 669.811 385.366 667.014C384.684 666.59 384.002 666.166 383.299 665.729C374.616 659.814 369.355 652.309 367.366 642.014C366.795 635.621 366.956 629.175 366.978 622.763C366.974 620.794 366.968 618.824 366.962 616.854C366.947 611.455 366.951 606.057 366.959 600.658C366.964 594.831 366.951 589.003 366.941 583.176C366.924 571.765 366.923 560.355 366.928 548.944C366.932 539.671 366.931 530.398 366.925 521.125C366.924 519.805 366.924 518.485 366.923 517.125C366.922 515.116 366.921 513.107 366.92 511.098C366.909 492.425 366.904 473.753 366.912 455.08C366.912 454.376 366.913 453.673 366.913 452.948C366.915 447.235 366.918 441.522 366.921 435.809C366.931 413.519 366.922 391.23 366.899 368.94C366.873 343.888 366.86 318.835 366.867 293.783C366.871 280.521 366.868 267.26 366.851 253.998C366.836 242.711 366.836 231.425 366.853 220.137C366.862 214.378 366.864 208.62 366.848 202.86C366.835 197.588 366.839 192.317 366.859 187.045C366.862 185.138 366.859 183.231 366.849 181.324C366.756 163.009 366.756 163.009 371.366 156.014C371.821 155.3 372.277 154.587 372.746 153.851C378.125 145.775 386.232 139.685 395.717 137.463C407.04 135.543 416.505 137.793 426.178 143.827Z" fill="url(#paint2_linear_2_57)"/>
<path d="M183.365 213.014C190.682 218.314 194.558 226.591 197.365 235.014C197.461 236.872 197.496 238.734 197.5 240.594C197.504 241.763 197.509 242.931 197.513 244.135C197.513 245.425 197.513 246.714 197.513 248.043C197.516 249.423 197.52 250.802 197.524 252.181C197.534 255.98 197.538 259.779 197.54 263.578C197.544 267.673 197.554 271.767 197.562 275.861C197.582 285.755 197.592 295.65 197.601 305.544C197.605 310.205 197.611 314.865 197.616 319.526C197.633 335.022 197.648 350.518 197.655 366.014C197.657 370.036 197.659 374.059 197.661 378.081C197.661 379.081 197.662 380.08 197.662 381.111C197.67 397.294 197.696 413.477 197.728 429.66C197.761 446.279 197.779 462.899 197.782 479.518C197.785 488.847 197.793 498.176 197.819 507.505C197.841 515.454 197.849 523.402 197.839 531.35C197.834 535.402 197.836 539.454 197.856 543.507C197.873 547.224 197.872 550.941 197.857 554.659C197.853 556.625 197.869 558.59 197.886 560.556C197.793 573.557 194.861 584.284 185.74 593.69C177.083 601.766 166.817 603.618 155.291 603.35C145.004 602.47 137.288 597.437 130.365 590.014C124.489 582.746 122.248 573.434 122.231 564.213C122.227 563.047 122.222 561.88 122.218 560.678C122.218 559.401 122.218 558.123 122.218 556.807C122.215 555.433 122.211 554.059 122.207 552.684C122.197 548.909 122.193 545.133 122.191 541.358C122.187 537.285 122.177 533.213 122.169 529.14C122.149 519.306 122.139 509.472 122.13 499.638C122.125 495.005 122.12 490.372 122.115 485.739C122.098 470.336 122.083 454.932 122.076 439.529C122.074 435.533 122.072 431.537 122.07 427.541C122.07 426.548 122.069 425.555 122.069 424.531C122.061 408.444 122.035 392.357 122.003 376.269C121.97 359.747 121.952 343.225 121.948 326.703C121.946 317.428 121.938 308.154 121.912 298.88C121.89 290.981 121.882 283.083 121.892 275.184C121.896 271.157 121.895 267.129 121.875 263.101C121.858 259.409 121.859 255.716 121.874 252.024C121.878 250.067 121.861 248.11 121.844 246.153C121.931 234.2 124.993 224.726 133.365 216.014C148.169 202.928 167.206 202.227 183.365 213.014Z" fill="url(#paint3_linear_2_57)"/>
<path d="M549.198 280.998C557.027 287.619 561.925 295.054 564.366 305.014C564.549 307.794 564.645 310.471 564.633 313.247C564.637 314.049 564.642 314.85 564.647 315.675C564.659 318.346 564.658 321.016 564.656 323.686C564.662 325.607 564.669 327.528 564.676 329.449C564.694 334.658 564.699 339.867 564.7 345.076C564.701 348.334 564.706 351.593 564.711 354.852C564.73 366.233 564.738 377.614 564.736 388.996C564.735 399.583 564.756 410.171 564.788 420.758C564.814 429.864 564.825 438.97 564.823 448.076C564.823 453.507 564.828 458.939 564.85 464.37C564.869 469.484 564.869 474.597 564.855 479.711C564.852 481.579 564.857 483.447 564.869 485.316C564.963 500.649 563.698 513.426 552.518 524.913C544.853 532.135 537.315 534.697 526.866 534.514C525.98 534.53 525.094 534.545 524.182 534.561C514.425 534.504 506.501 530.563 499.366 524.014C491.759 515.564 489.216 507.118 489.218 495.849C489.215 495.031 489.211 494.213 489.207 493.371C489.196 490.632 489.192 487.893 489.189 485.154C489.182 483.189 489.176 481.224 489.169 479.26C489.148 472.809 489.137 466.359 489.127 459.909C489.123 457.686 489.119 455.463 489.115 453.241C489.096 442.798 489.082 432.355 489.073 421.912C489.064 409.867 489.037 397.822 488.997 385.777C488.967 376.46 488.952 367.144 488.949 357.827C488.946 352.266 488.937 346.704 488.912 341.143C488.889 335.909 488.885 330.675 488.895 325.44C488.895 323.524 488.889 321.608 488.875 319.691C488.779 305.54 490.003 294.612 500.366 284.014C514.902 272.112 533.264 269.834 549.198 280.998Z" fill="url(#paint4_linear_2_57)"/>
<path d="M54.5218 345.752C55.1302 346.169 55.7387 346.585 56.3655 347.014C57.0565 347.461 57.7474 347.909 58.4593 348.37C67.2433 354.482 73.1786 362.411 75.3655 373.014C75.4667 375.008 75.5138 377.005 75.5267 379.001C75.5363 380.21 75.5459 381.418 75.5558 382.664C75.56 383.968 75.5643 385.272 75.5687 386.616C75.5729 387.617 75.5729 387.617 75.5772 388.64C75.5922 392.178 75.6014 395.717 75.6058 399.256C75.6112 402.887 75.6352 406.518 75.6637 410.149C75.6825 412.961 75.6876 415.773 75.6891 418.586C75.6936 420.568 75.7121 422.549 75.7311 424.531C75.7006 436.981 73.2228 446.83 64.4788 455.991C54.9524 464.787 45.9125 466.387 33.1351 466.299C27.9332 465.906 23.9192 464.485 19.3655 462.014C18.3343 461.457 17.303 460.9 16.2405 460.327C7.39132 453.209 2.28484 445.229 0.36554 434.014C0.26692 432.013 0.21753 430.009 0.204407 428.006C0.194799 426.817 0.185192 425.628 0.175293 424.404C0.171043 423.127 0.166793 421.849 0.162415 420.534C0.159587 419.878 0.15676 419.222 0.153847 418.546C0.13889 415.072 0.12964 411.598 0.125305 408.124C0.119838 404.562 0.0958377 400.999 0.0673332 397.437C0.048572 394.675 0.0434941 391.913 0.0419693 389.151C0.0375256 387.207 0.0189438 385.263 0 383.319C0.0298653 371.334 2.13245 362.877 10.3655 354.014C21.3243 343.128 40.156 337.629 54.5218 345.752Z" fill="url(#paint5_linear_2_57)"/>
<path d="M770.115 342.827C771.295 342.808 771.295 342.808 772.498 342.79C782.723 342.764 790.218 346.094 797.576 353.127C804.908 361.018 808.455 368.174 808.526 379.007C808.536 380.192 808.546 381.378 808.556 382.599C808.56 383.873 808.564 385.147 808.568 386.459C808.573 387.441 808.573 387.441 808.577 388.443C808.592 391.912 808.601 395.38 808.606 398.849C808.611 402.403 808.635 405.956 808.664 409.509C808.682 412.267 808.687 415.024 808.689 417.782C808.693 419.72 808.712 421.658 808.731 423.596C808.699 436.262 806.415 446.644 797.479 455.987C788.079 464.685 779.137 466.507 766.643 466.291C756.283 465.837 748.005 460.142 741.115 452.702C735.408 445.688 733.271 437.846 733.188 428.93C733.175 427.724 733.163 426.519 733.149 425.277C733.142 423.981 733.135 422.685 733.127 421.35C733.123 420.684 733.119 420.019 733.115 419.333C733.094 415.806 733.08 412.279 733.07 408.752C733.059 405.138 733.025 401.524 732.985 397.91C732.959 395.106 732.95 392.302 732.947 389.498C732.94 387.527 732.913 385.556 732.886 383.585C732.916 371.023 736.153 361.328 745.025 352.331C752.5 345.503 760.07 342.835 770.115 342.827Z" fill="url(#paint6_linear_2_57)"/>
<defs>
<linearGradient id="paint0_linear_2_57" x1="281.867" y1="0" x2="281.867" y2="808.683" gradientUnits="userSpaceOnUse">
<stop stop-color="#FECD79"/>
<stop offset="1" stop-color="#F59F0A"/>
</linearGradient>
<linearGradient id="paint1_linear_2_57" x1="648.794" y1="136.819" x2="648.794" y2="671.236" gradientUnits="userSpaceOnUse">
<stop stop-color="#FECD79"/>
<stop offset="1" stop-color="#F59F0A"/>
</linearGradient>
<linearGradient id="paint2_linear_2_57" x1="404.294" y1="136.795" x2="404.294" y2="671.313" gradientUnits="userSpaceOnUse">
<stop stop-color="#FECD79"/>
<stop offset="1" stop-color="#F59F0A"/>
</linearGradient>
<linearGradient id="paint3_linear_2_57" x1="159.865" y1="205.508" x2="159.865" y2="603.374" gradientUnits="userSpaceOnUse">
<stop stop-color="#FECD79"/>
<stop offset="1" stop-color="#F59F0A"/>
</linearGradient>
<linearGradient id="paint4_linear_2_57" x1="526.872" y1="273.743" x2="526.872" y2="534.561" gradientUnits="userSpaceOnUse">
<stop stop-color="#FECD79"/>
<stop offset="1" stop-color="#F59F0A"/>
</linearGradient>
<linearGradient id="paint5_linear_2_57" x1="37.8655" y1="341.865" x2="37.8655" y2="466.303" gradientUnits="userSpaceOnUse">
<stop stop-color="#FECD79"/>
<stop offset="1" stop-color="#F59F0A"/>
</linearGradient>
<linearGradient id="paint6_linear_2_57" x1="770.809" y1="342.789" x2="770.809" y2="466.308" gradientUnits="userSpaceOnUse">
<stop stop-color="#FECD79"/>
<stop offset="1" stop-color="#F59F0A"/>
</linearGradient>
</defs>
</svg>
